<svg width="152" height="20" viewBox="0 0 152 20" fill="none" xmlns="http://www.w3.org/2000/svg">
<g clip-path="url(#clip0_1_591)">
<path d="M18.5 18.5L14.1034 14.1034M1.5 8.82759C1.5 4.78067 4.78067 1.5 8.82759 1.5C12.8745 1.5 16.1552 4.78067 16.1552 8.82759C16.1552 12.8745 12.8745 16.1552 8.82759 16.1552C4.78067 16.1552 1.5 12.8745 1.5 8.82759Z" stroke="#595667" stroke-width="1.59375" stroke-linecap="round" stroke-linejoin="round"/>
</g>
<path d="M61.3125 10C61.3125 14.0386 58.0386 17.3125 54 17.3125V19C58.9706 19 63 14.9706 63 10H61.3125ZM54 17.3125C49.9614 17.3125 46.6875 14.0386 46.6875 10H45C45 14.9706 49.0294 19 54 19V17.3125ZM46.6875 10C46.6875 5.96142 49.9614 2.6875 54 2.6875V1C49.0294 1 45 5.02943 45 10H46.6875ZM54 2.6875C58.0386 2.6875 61.3125 5.96142 61.3125 10H63C63 5.02943 58.9706 1 54 1V2.6875Z" fill="#595667"/>
<path d="M55.6875 7.75C55.6875 8.68195 54.932 9.4375 54 9.4375V11.125C55.864 11.125 57.375 9.61401 57.375 7.75H55.6875ZM54 9.4375C53.068 9.4375 52.3125 8.68195 52.3125 7.75H50.625C50.625 9.61401 52.136 11.125 54 11.125V9.4375ZM52.3125 7.75C52.3125 6.81802 53.068 6.0625 54 6.0625V4.375C52.136 4.375 50.625 5.88604 50.625 7.75H52.3125ZM54 6.0625C54.932 6.0625 55.6875 6.81802 55.6875 7.75H57.375C57.375 5.88604 55.864 4.375 54 4.375V6.0625Z" fill="#595667"/>
<path d="M47.9495 15.0847C47.6511 15.4425 47.6993 15.9747 48.0572 16.273C48.4151 16.5715 48.9471 16.5232 49.2456 16.1653L47.9495 15.0847ZM58.7552 16.1653C59.0536 16.5232 59.5857 16.5715 59.9436 16.273C60.3014 15.9747 60.3497 15.4425 60.0512 15.0847L58.7552 16.1653ZM49.2456 16.1653C50.3819 14.8025 52.0897 13.9375 54.0004 13.9375V12.25C51.568 12.25 49.3927 13.3537 47.9495 15.0847L49.2456 16.1653ZM54.0004 13.9375C55.911 13.9375 57.6189 14.8025 58.7552 16.1653L60.0512 15.0847C58.6081 13.3537 56.4328 12.25 54.0004 12.25V13.9375Z" fill="#595667"/>
<path fill-rule="evenodd" clip-rule="evenodd" d="M97.9941 4.41129C96.2947 2.50823 93.4608 1.99631 91.3315 3.73894C89.2022 5.48158 88.9024 8.39516 90.5746 10.4563L97.9941 17.3275L105.414 10.4563C107.086 8.39516 106.823 5.46326 104.657 3.73894C102.491 2.01464 99.6937 2.50823 97.9941 4.41129Z" stroke="#595667" stroke-width="1.5" stroke-linecap="round" stroke-linejoin="round"/>
<path d="M136.984 4.54098H150.558L148.625 12.7538C148.374 13.8201 147.423 14.5738 146.327 14.5738H141.457C140.386 14.5738 139.449 13.8526 139.175 12.8172L136.984 4.54098ZM136.984 4.54098L136.099 1H133.443" stroke="#595667" stroke-width="1.5" stroke-linecap="round" stroke-linejoin="round"/>
<path d="M139.641 18.9998C140.292 18.9998 140.821 18.4714 140.821 17.8195C140.821 17.1676 140.292 16.6392 139.641 16.6392C138.989 16.6392 138.46 17.1676 138.46 17.8195C138.46 18.4714 138.989 18.9998 139.641 18.9998Z" fill="#595667"/>
<path d="M147.904 18.9998C148.555 18.9998 149.084 18.4714 149.084 17.8195C149.084 17.1676 148.555 16.6392 147.904 16.6392C147.252 16.6392 146.723 17.1676 146.723 17.8195C146.723 18.4714 147.252 18.9998 147.904 18.9998Z" fill="#595667"/>
<defs>
<clipPath id="clip0_1_591">
<rect width="20" height="20" fill="white"/>
</clipPath>
</defs>
</svg>
